<mxfile host="app.diagrams.net" agent="Mozilla/5.0 (Windows NT 10.0; Win64; x64) AppleWebKit/537.36 (KHTML, like Gecko) Chrome/129.0.0.0 Safari/537.36" version="24.8.0">
  <diagram id="C5RBs43oDa-KdzZeNtuy" name="Page-1">
    <mxGraphModel dx="1050" dy="522" grid="1" gridSize="10" guides="1" tooltips="1" connect="1" arrows="1" fold="1" page="1" pageScale="1" pageWidth="827" pageHeight="1169" math="0" shadow="0">
      <root>
        <mxCell id="WIyWlLk6GJQsqaUBKTNV-0" />
        <mxCell id="WIyWlLk6GJQsqaUBKTNV-1" parent="WIyWlLk6GJQsqaUBKTNV-0" />
        <mxCell id="ah__51HWeYL9F3NEtW8U-4" value="" style="edgeStyle=orthogonalEdgeStyle;rounded=0;orthogonalLoop=1;jettySize=auto;html=1;" edge="1" parent="WIyWlLk6GJQsqaUBKTNV-1" source="ah__51HWeYL9F3NEtW8U-0" target="ah__51HWeYL9F3NEtW8U-3">
          <mxGeometry relative="1" as="geometry" />
        </mxCell>
        <mxCell id="ah__51HWeYL9F3NEtW8U-7" value="" style="edgeStyle=orthogonalEdgeStyle;rounded=0;orthogonalLoop=1;jettySize=auto;html=1;" edge="1" parent="WIyWlLk6GJQsqaUBKTNV-1" source="ah__51HWeYL9F3NEtW8U-0" target="ah__51HWeYL9F3NEtW8U-3">
          <mxGeometry relative="1" as="geometry" />
        </mxCell>
        <mxCell id="ah__51HWeYL9F3NEtW8U-9" value="" style="edgeStyle=orthogonalEdgeStyle;rounded=0;orthogonalLoop=1;jettySize=auto;html=1;" edge="1" parent="WIyWlLk6GJQsqaUBKTNV-1" source="ah__51HWeYL9F3NEtW8U-0" target="ah__51HWeYL9F3NEtW8U-8">
          <mxGeometry relative="1" as="geometry">
            <Array as="points">
              <mxPoint x="140" y="200" />
              <mxPoint x="300" y="200" />
            </Array>
          </mxGeometry>
        </mxCell>
        <mxCell id="ah__51HWeYL9F3NEtW8U-13" value="" style="edgeStyle=orthogonalEdgeStyle;rounded=0;orthogonalLoop=1;jettySize=auto;html=1;" edge="1" parent="WIyWlLk6GJQsqaUBKTNV-1" source="ah__51HWeYL9F3NEtW8U-0" target="ah__51HWeYL9F3NEtW8U-12">
          <mxGeometry relative="1" as="geometry">
            <Array as="points">
              <mxPoint x="140" y="200" />
              <mxPoint x="460" y="200" />
            </Array>
          </mxGeometry>
        </mxCell>
        <mxCell id="ah__51HWeYL9F3NEtW8U-18" value="" style="edgeStyle=orthogonalEdgeStyle;rounded=0;orthogonalLoop=1;jettySize=auto;html=1;" edge="1" parent="WIyWlLk6GJQsqaUBKTNV-1" source="ah__51HWeYL9F3NEtW8U-0" target="ah__51HWeYL9F3NEtW8U-17">
          <mxGeometry relative="1" as="geometry">
            <Array as="points">
              <mxPoint x="140" y="200" />
              <mxPoint x="620" y="200" />
            </Array>
          </mxGeometry>
        </mxCell>
        <mxCell id="ah__51HWeYL9F3NEtW8U-0" value="初期表示" style="rounded=1;whiteSpace=wrap;html=1;" vertex="1" parent="WIyWlLk6GJQsqaUBKTNV-1">
          <mxGeometry x="80" y="120" width="120" height="40" as="geometry" />
        </mxCell>
        <mxCell id="ah__51HWeYL9F3NEtW8U-2" value="タイトル画面" style="text;html=1;align=center;verticalAlign=middle;whiteSpace=wrap;rounded=0;fontSize=22;" vertex="1" parent="WIyWlLk6GJQsqaUBKTNV-1">
          <mxGeometry x="40" y="40" width="150" height="40" as="geometry" />
        </mxCell>
        <mxCell id="ah__51HWeYL9F3NEtW8U-6" value="" style="edgeStyle=orthogonalEdgeStyle;rounded=0;orthogonalLoop=1;jettySize=auto;html=1;" edge="1" parent="WIyWlLk6GJQsqaUBKTNV-1" source="ah__51HWeYL9F3NEtW8U-3">
          <mxGeometry relative="1" as="geometry">
            <mxPoint x="140" y="360" as="targetPoint" />
          </mxGeometry>
        </mxCell>
        <mxCell id="ah__51HWeYL9F3NEtW8U-3" value="はじめから" style="rounded=1;whiteSpace=wrap;html=1;" vertex="1" parent="WIyWlLk6GJQsqaUBKTNV-1">
          <mxGeometry x="80" y="240" width="120" height="40" as="geometry" />
        </mxCell>
        <mxCell id="ah__51HWeYL9F3NEtW8U-11" value="" style="edgeStyle=orthogonalEdgeStyle;rounded=0;orthogonalLoop=1;jettySize=auto;html=1;" edge="1" parent="WIyWlLk6GJQsqaUBKTNV-1" source="ah__51HWeYL9F3NEtW8U-8">
          <mxGeometry relative="1" as="geometry">
            <mxPoint x="300" y="360" as="targetPoint" />
          </mxGeometry>
        </mxCell>
        <mxCell id="ah__51HWeYL9F3NEtW8U-8" value="つづきから" style="rounded=1;whiteSpace=wrap;html=1;" vertex="1" parent="WIyWlLk6GJQsqaUBKTNV-1">
          <mxGeometry x="240" y="240" width="120" height="40" as="geometry" />
        </mxCell>
        <mxCell id="ah__51HWeYL9F3NEtW8U-15" value="" style="edgeStyle=orthogonalEdgeStyle;rounded=0;orthogonalLoop=1;jettySize=auto;html=1;" edge="1" parent="WIyWlLk6GJQsqaUBKTNV-1" source="ah__51HWeYL9F3NEtW8U-12">
          <mxGeometry relative="1" as="geometry">
            <mxPoint x="460" y="360" as="targetPoint" />
          </mxGeometry>
        </mxCell>
        <mxCell id="ah__51HWeYL9F3NEtW8U-12" value="おわる" style="rounded=1;whiteSpace=wrap;html=1;" vertex="1" parent="WIyWlLk6GJQsqaUBKTNV-1">
          <mxGeometry x="400" y="240" width="120" height="40" as="geometry" />
        </mxCell>
        <mxCell id="ah__51HWeYL9F3NEtW8U-16" value="ゲーム終了" style="shape=process;whiteSpace=wrap;html=1;backgroundOutline=1;fillColor=#f8cecc;strokeColor=#b85450;" vertex="1" parent="WIyWlLk6GJQsqaUBKTNV-1">
          <mxGeometry x="400" y="360" width="120" height="40" as="geometry" />
        </mxCell>
        <mxCell id="ah__51HWeYL9F3NEtW8U-20" value="" style="edgeStyle=orthogonalEdgeStyle;rounded=0;orthogonalLoop=1;jettySize=auto;html=1;" edge="1" parent="WIyWlLk6GJQsqaUBKTNV-1" source="ah__51HWeYL9F3NEtW8U-17">
          <mxGeometry relative="1" as="geometry">
            <mxPoint x="620" y="360" as="targetPoint" />
          </mxGeometry>
        </mxCell>
        <mxCell id="ah__51HWeYL9F3NEtW8U-17" value="クレジット" style="rounded=1;whiteSpace=wrap;html=1;" vertex="1" parent="WIyWlLk6GJQsqaUBKTNV-1">
          <mxGeometry x="560" y="240" width="120" height="40" as="geometry" />
        </mxCell>
        <mxCell id="ah__51HWeYL9F3NEtW8U-22" value="" style="edgeStyle=orthogonalEdgeStyle;rounded=0;orthogonalLoop=1;jettySize=auto;html=1;entryX=1;entryY=0.5;entryDx=0;entryDy=0;" edge="1" parent="WIyWlLk6GJQsqaUBKTNV-1" target="ah__51HWeYL9F3NEtW8U-0">
          <mxGeometry relative="1" as="geometry">
            <mxPoint x="680" y="380" as="sourcePoint" />
            <mxPoint x="760" y="140" as="targetPoint" />
            <Array as="points">
              <mxPoint x="740" y="380" />
              <mxPoint x="740" y="140" />
            </Array>
          </mxGeometry>
        </mxCell>
        <mxCell id="ah__51HWeYL9F3NEtW8U-23" value="準備画面遷移" style="shape=process;whiteSpace=wrap;html=1;backgroundOutline=1;fillColor=#dae8fc;strokeColor=#6c8ebf;" vertex="1" parent="WIyWlLk6GJQsqaUBKTNV-1">
          <mxGeometry x="240" y="360" width="120" height="40" as="geometry" />
        </mxCell>
        <mxCell id="ah__51HWeYL9F3NEtW8U-24" value="準備画面遷移" style="shape=process;whiteSpace=wrap;html=1;backgroundOutline=1;fillColor=#dae8fc;strokeColor=#6c8ebf;" vertex="1" parent="WIyWlLk6GJQsqaUBKTNV-1">
          <mxGeometry x="80" y="360" width="120" height="40" as="geometry" />
        </mxCell>
        <mxCell id="ah__51HWeYL9F3NEtW8U-25" value="クレジット表示" style="shape=process;whiteSpace=wrap;html=1;backgroundOutline=1;fillColor=#d5e8d4;strokeColor=#82b366;" vertex="1" parent="WIyWlLk6GJQsqaUBKTNV-1">
          <mxGeometry x="560" y="360" width="120" height="40" as="geometry" />
        </mxCell>
        <mxCell id="ah__51HWeYL9F3NEtW8U-27" value="準備画面" style="text;html=1;align=center;verticalAlign=middle;whiteSpace=wrap;rounded=0;fontSize=22;" vertex="1" parent="WIyWlLk6GJQsqaUBKTNV-1">
          <mxGeometry x="40" y="440" width="160" height="40" as="geometry" />
        </mxCell>
        <mxCell id="ah__51HWeYL9F3NEtW8U-30" value="" style="edgeStyle=orthogonalEdgeStyle;rounded=0;orthogonalLoop=1;jettySize=auto;html=1;" edge="1" parent="WIyWlLk6GJQsqaUBKTNV-1" source="ah__51HWeYL9F3NEtW8U-28" target="ah__51HWeYL9F3NEtW8U-29">
          <mxGeometry relative="1" as="geometry" />
        </mxCell>
        <mxCell id="ah__51HWeYL9F3NEtW8U-37" value="" style="edgeStyle=orthogonalEdgeStyle;rounded=0;orthogonalLoop=1;jettySize=auto;html=1;" edge="1" parent="WIyWlLk6GJQsqaUBKTNV-1" source="ah__51HWeYL9F3NEtW8U-28" target="ah__51HWeYL9F3NEtW8U-36">
          <mxGeometry relative="1" as="geometry">
            <Array as="points">
              <mxPoint x="140" y="580" />
              <mxPoint x="280" y="580" />
            </Array>
          </mxGeometry>
        </mxCell>
        <mxCell id="ah__51HWeYL9F3NEtW8U-75" style="edgeStyle=orthogonalEdgeStyle;rounded=0;orthogonalLoop=1;jettySize=auto;html=1;exitX=0.5;exitY=1;exitDx=0;exitDy=0;entryX=0.5;entryY=0;entryDx=0;entryDy=0;" edge="1" parent="WIyWlLk6GJQsqaUBKTNV-1" source="ah__51HWeYL9F3NEtW8U-28" target="ah__51HWeYL9F3NEtW8U-73">
          <mxGeometry relative="1" as="geometry" />
        </mxCell>
        <mxCell id="ah__51HWeYL9F3NEtW8U-28" value="初期表示" style="rounded=1;whiteSpace=wrap;html=1;" vertex="1" parent="WIyWlLk6GJQsqaUBKTNV-1">
          <mxGeometry x="80" y="520" width="120" height="40" as="geometry" />
        </mxCell>
        <mxCell id="ah__51HWeYL9F3NEtW8U-32" value="" style="edgeStyle=orthogonalEdgeStyle;rounded=0;orthogonalLoop=1;jettySize=auto;html=1;" edge="1" parent="WIyWlLk6GJQsqaUBKTNV-1" source="ah__51HWeYL9F3NEtW8U-29" target="ah__51HWeYL9F3NEtW8U-53">
          <mxGeometry relative="1" as="geometry">
            <mxPoint x="140" y="680" as="targetPoint" />
          </mxGeometry>
        </mxCell>
        <mxCell id="ah__51HWeYL9F3NEtW8U-29" value="出発" style="rounded=1;whiteSpace=wrap;html=1;" vertex="1" parent="WIyWlLk6GJQsqaUBKTNV-1">
          <mxGeometry x="80" y="600" width="120" height="40" as="geometry" />
        </mxCell>
        <mxCell id="ah__51HWeYL9F3NEtW8U-34" value="バトル画面遷移" style="shape=process;whiteSpace=wrap;html=1;backgroundOutline=1;fillColor=#dae8fc;strokeColor=#6c8ebf;" vertex="1" parent="WIyWlLk6GJQsqaUBKTNV-1">
          <mxGeometry x="80" y="760" width="120" height="40" as="geometry" />
        </mxCell>
        <mxCell id="ah__51HWeYL9F3NEtW8U-39" value="" style="edgeStyle=orthogonalEdgeStyle;rounded=0;orthogonalLoop=1;jettySize=auto;html=1;" edge="1" parent="WIyWlLk6GJQsqaUBKTNV-1" source="ah__51HWeYL9F3NEtW8U-36" target="ah__51HWeYL9F3NEtW8U-38">
          <mxGeometry relative="1" as="geometry" />
        </mxCell>
        <mxCell id="ah__51HWeYL9F3NEtW8U-41" value="" style="edgeStyle=orthogonalEdgeStyle;rounded=0;orthogonalLoop=1;jettySize=auto;html=1;entryX=0.5;entryY=0;entryDx=0;entryDy=0;" edge="1" parent="WIyWlLk6GJQsqaUBKTNV-1" source="ah__51HWeYL9F3NEtW8U-36" target="ah__51HWeYL9F3NEtW8U-40">
          <mxGeometry relative="1" as="geometry">
            <Array as="points">
              <mxPoint x="280" y="660" />
              <mxPoint x="420" y="660" />
            </Array>
          </mxGeometry>
        </mxCell>
        <mxCell id="ah__51HWeYL9F3NEtW8U-36" value="育てる" style="rounded=1;whiteSpace=wrap;html=1;" vertex="1" parent="WIyWlLk6GJQsqaUBKTNV-1">
          <mxGeometry x="220" y="600" width="120" height="40" as="geometry" />
        </mxCell>
        <mxCell id="ah__51HWeYL9F3NEtW8U-43" value="" style="edgeStyle=orthogonalEdgeStyle;rounded=0;orthogonalLoop=1;jettySize=auto;html=1;" edge="1" parent="WIyWlLk6GJQsqaUBKTNV-1" source="ah__51HWeYL9F3NEtW8U-38" target="ah__51HWeYL9F3NEtW8U-42">
          <mxGeometry relative="1" as="geometry" />
        </mxCell>
        <mxCell id="ah__51HWeYL9F3NEtW8U-63" style="edgeStyle=orthogonalEdgeStyle;rounded=0;orthogonalLoop=1;jettySize=auto;html=1;entryX=0.5;entryY=1;entryDx=0;entryDy=0;" edge="1" parent="WIyWlLk6GJQsqaUBKTNV-1" source="ah__51HWeYL9F3NEtW8U-38" target="ah__51HWeYL9F3NEtW8U-36">
          <mxGeometry relative="1" as="geometry" />
        </mxCell>
        <mxCell id="ah__51HWeYL9F3NEtW8U-38" value="鍛える" style="rounded=1;whiteSpace=wrap;html=1;" vertex="1" parent="WIyWlLk6GJQsqaUBKTNV-1">
          <mxGeometry x="220" y="680" width="120" height="40" as="geometry" />
        </mxCell>
        <mxCell id="ah__51HWeYL9F3NEtW8U-67" value="" style="edgeStyle=orthogonalEdgeStyle;rounded=0;orthogonalLoop=1;jettySize=auto;html=1;" edge="1" parent="WIyWlLk6GJQsqaUBKTNV-1" source="ah__51HWeYL9F3NEtW8U-40" target="ah__51HWeYL9F3NEtW8U-64">
          <mxGeometry relative="1" as="geometry" />
        </mxCell>
        <mxCell id="ah__51HWeYL9F3NEtW8U-40" value="生活" style="rounded=1;whiteSpace=wrap;html=1;" vertex="1" parent="WIyWlLk6GJQsqaUBKTNV-1">
          <mxGeometry x="360" y="680" width="120" height="40" as="geometry" />
        </mxCell>
        <mxCell id="ah__51HWeYL9F3NEtW8U-45" value="" style="edgeStyle=orthogonalEdgeStyle;rounded=0;orthogonalLoop=1;jettySize=auto;html=1;" edge="1" parent="WIyWlLk6GJQsqaUBKTNV-1" source="ah__51HWeYL9F3NEtW8U-42">
          <mxGeometry relative="1" as="geometry">
            <mxPoint x="280" y="840" as="targetPoint" />
          </mxGeometry>
        </mxCell>
        <mxCell id="ah__51HWeYL9F3NEtW8U-61" style="edgeStyle=orthogonalEdgeStyle;rounded=0;orthogonalLoop=1;jettySize=auto;html=1;" edge="1" parent="WIyWlLk6GJQsqaUBKTNV-1" source="ah__51HWeYL9F3NEtW8U-42" target="ah__51HWeYL9F3NEtW8U-38">
          <mxGeometry relative="1" as="geometry" />
        </mxCell>
        <mxCell id="ah__51HWeYL9F3NEtW8U-42" value="鍛練メニュー選択" style="rounded=1;whiteSpace=wrap;html=1;fillColor=#fff2cc;strokeColor=#d6b656;" vertex="1" parent="WIyWlLk6GJQsqaUBKTNV-1">
          <mxGeometry x="220" y="760" width="120" height="40" as="geometry" />
        </mxCell>
        <mxCell id="ah__51HWeYL9F3NEtW8U-52" style="edgeStyle=orthogonalEdgeStyle;rounded=0;orthogonalLoop=1;jettySize=auto;html=1;exitX=0.5;exitY=1;exitDx=0;exitDy=0;entryX=0;entryY=0.5;entryDx=0;entryDy=0;" edge="1" parent="WIyWlLk6GJQsqaUBKTNV-1" source="ah__51HWeYL9F3NEtW8U-46" target="ah__51HWeYL9F3NEtW8U-28">
          <mxGeometry relative="1" as="geometry">
            <mxPoint x="60" y="580" as="targetPoint" />
            <Array as="points">
              <mxPoint x="280" y="980" />
              <mxPoint x="40" y="980" />
              <mxPoint x="40" y="540" />
            </Array>
          </mxGeometry>
        </mxCell>
        <mxCell id="ah__51HWeYL9F3NEtW8U-46" value="効果適用（１回のみ）" style="shape=process;whiteSpace=wrap;html=1;backgroundOutline=1;fillColor=#d5e8d4;strokeColor=#82b366;" vertex="1" parent="WIyWlLk6GJQsqaUBKTNV-1">
          <mxGeometry x="220" y="920" width="120" height="40" as="geometry" />
        </mxCell>
        <mxCell id="ah__51HWeYL9F3NEtW8U-51" style="edgeStyle=orthogonalEdgeStyle;rounded=0;orthogonalLoop=1;jettySize=auto;html=1;exitX=0.5;exitY=1;exitDx=0;exitDy=0;entryX=0.5;entryY=0;entryDx=0;entryDy=0;" edge="1" parent="WIyWlLk6GJQsqaUBKTNV-1" source="ah__51HWeYL9F3NEtW8U-49" target="ah__51HWeYL9F3NEtW8U-46">
          <mxGeometry relative="1" as="geometry" />
        </mxCell>
        <mxCell id="ah__51HWeYL9F3NEtW8U-60" value="" style="edgeStyle=orthogonalEdgeStyle;rounded=0;orthogonalLoop=1;jettySize=auto;html=1;" edge="1" parent="WIyWlLk6GJQsqaUBKTNV-1" source="ah__51HWeYL9F3NEtW8U-49" target="ah__51HWeYL9F3NEtW8U-42">
          <mxGeometry relative="1" as="geometry" />
        </mxCell>
        <mxCell id="ah__51HWeYL9F3NEtW8U-49" value="対象味方キャラ選択" style="rounded=1;whiteSpace=wrap;html=1;fillColor=#fff2cc;strokeColor=#d6b656;" vertex="1" parent="WIyWlLk6GJQsqaUBKTNV-1">
          <mxGeometry x="220" y="840" width="120" height="40" as="geometry" />
        </mxCell>
        <mxCell id="ah__51HWeYL9F3NEtW8U-55" value="" style="edgeStyle=orthogonalEdgeStyle;rounded=0;orthogonalLoop=1;jettySize=auto;html=1;" edge="1" parent="WIyWlLk6GJQsqaUBKTNV-1" source="ah__51HWeYL9F3NEtW8U-53" target="ah__51HWeYL9F3NEtW8U-34">
          <mxGeometry relative="1" as="geometry" />
        </mxCell>
        <mxCell id="ah__51HWeYL9F3NEtW8U-62" style="edgeStyle=orthogonalEdgeStyle;rounded=0;orthogonalLoop=1;jettySize=auto;html=1;" edge="1" parent="WIyWlLk6GJQsqaUBKTNV-1" source="ah__51HWeYL9F3NEtW8U-53" target="ah__51HWeYL9F3NEtW8U-29">
          <mxGeometry relative="1" as="geometry" />
        </mxCell>
        <mxCell id="ah__51HWeYL9F3NEtW8U-53" value="出発先選択" style="rounded=1;whiteSpace=wrap;html=1;fillColor=#fff2cc;strokeColor=#d6b656;" vertex="1" parent="WIyWlLk6GJQsqaUBKTNV-1">
          <mxGeometry x="80" y="680" width="120" height="40" as="geometry" />
        </mxCell>
        <mxCell id="ah__51HWeYL9F3NEtW8U-68" style="edgeStyle=orthogonalEdgeStyle;rounded=0;orthogonalLoop=1;jettySize=auto;html=1;" edge="1" parent="WIyWlLk6GJQsqaUBKTNV-1" source="ah__51HWeYL9F3NEtW8U-64" target="ah__51HWeYL9F3NEtW8U-40">
          <mxGeometry relative="1" as="geometry" />
        </mxCell>
        <mxCell id="ah__51HWeYL9F3NEtW8U-69" value="" style="edgeStyle=orthogonalEdgeStyle;rounded=0;orthogonalLoop=1;jettySize=auto;html=1;" edge="1" parent="WIyWlLk6GJQsqaUBKTNV-1" source="ah__51HWeYL9F3NEtW8U-64" target="ah__51HWeYL9F3NEtW8U-66">
          <mxGeometry relative="1" as="geometry" />
        </mxCell>
        <mxCell id="ah__51HWeYL9F3NEtW8U-64" value="鍛練メニュー選択" style="rounded=1;whiteSpace=wrap;html=1;fillColor=#fff2cc;strokeColor=#d6b656;" vertex="1" parent="WIyWlLk6GJQsqaUBKTNV-1">
          <mxGeometry x="360" y="760" width="120" height="40" as="geometry" />
        </mxCell>
        <mxCell id="ah__51HWeYL9F3NEtW8U-72" style="edgeStyle=orthogonalEdgeStyle;rounded=0;orthogonalLoop=1;jettySize=auto;html=1;exitX=0.5;exitY=1;exitDx=0;exitDy=0;entryX=0;entryY=0.5;entryDx=0;entryDy=0;" edge="1" parent="WIyWlLk6GJQsqaUBKTNV-1" source="ah__51HWeYL9F3NEtW8U-65" target="ah__51HWeYL9F3NEtW8U-28">
          <mxGeometry relative="1" as="geometry">
            <Array as="points">
              <mxPoint x="420" y="980" />
              <mxPoint x="40" y="980" />
              <mxPoint x="40" y="540" />
            </Array>
          </mxGeometry>
        </mxCell>
        <mxCell id="ah__51HWeYL9F3NEtW8U-65" value="効果適用（１回のみ）" style="shape=process;whiteSpace=wrap;html=1;backgroundOutline=1;fillColor=#d5e8d4;strokeColor=#82b366;" vertex="1" parent="WIyWlLk6GJQsqaUBKTNV-1">
          <mxGeometry x="360" y="920" width="120" height="40" as="geometry" />
        </mxCell>
        <mxCell id="ah__51HWeYL9F3NEtW8U-70" style="edgeStyle=orthogonalEdgeStyle;rounded=0;orthogonalLoop=1;jettySize=auto;html=1;" edge="1" parent="WIyWlLk6GJQsqaUBKTNV-1" source="ah__51HWeYL9F3NEtW8U-66" target="ah__51HWeYL9F3NEtW8U-64">
          <mxGeometry relative="1" as="geometry" />
        </mxCell>
        <mxCell id="ah__51HWeYL9F3NEtW8U-71" value="" style="edgeStyle=orthogonalEdgeStyle;rounded=0;orthogonalLoop=1;jettySize=auto;html=1;" edge="1" parent="WIyWlLk6GJQsqaUBKTNV-1" source="ah__51HWeYL9F3NEtW8U-66" target="ah__51HWeYL9F3NEtW8U-65">
          <mxGeometry relative="1" as="geometry" />
        </mxCell>
        <mxCell id="ah__51HWeYL9F3NEtW8U-66" value="対象味方キャラ選択" style="rounded=1;whiteSpace=wrap;html=1;fillColor=#fff2cc;strokeColor=#d6b656;" vertex="1" parent="WIyWlLk6GJQsqaUBKTNV-1">
          <mxGeometry x="360" y="840" width="120" height="40" as="geometry" />
        </mxCell>
        <mxCell id="ah__51HWeYL9F3NEtW8U-77" value="" style="edgeStyle=orthogonalEdgeStyle;rounded=0;orthogonalLoop=1;jettySize=auto;html=1;" edge="1" parent="WIyWlLk6GJQsqaUBKTNV-1" source="ah__51HWeYL9F3NEtW8U-73" target="ah__51HWeYL9F3NEtW8U-76">
          <mxGeometry relative="1" as="geometry" />
        </mxCell>
        <mxCell id="ah__51HWeYL9F3NEtW8U-73" value="おわる" style="rounded=1;whiteSpace=wrap;html=1;" vertex="1" parent="WIyWlLk6GJQsqaUBKTNV-1">
          <mxGeometry x="500" y="600" width="120" height="40" as="geometry" />
        </mxCell>
        <mxCell id="ah__51HWeYL9F3NEtW8U-76" value="ゲーム終了" style="shape=process;whiteSpace=wrap;html=1;backgroundOutline=1;fillColor=#f8cecc;strokeColor=#b85450;" vertex="1" parent="WIyWlLk6GJQsqaUBKTNV-1">
          <mxGeometry x="500" y="680" width="120" height="40" as="geometry" />
        </mxCell>
        <mxCell id="ah__51HWeYL9F3NEtW8U-80" value="バトル画面" style="text;html=1;align=center;verticalAlign=middle;whiteSpace=wrap;rounded=0;fontSize=22;" vertex="1" parent="WIyWlLk6GJQsqaUBKTNV-1">
          <mxGeometry x="40" y="1040" width="160" height="40" as="geometry" />
        </mxCell>
        <mxCell id="ah__51HWeYL9F3NEtW8U-83" value="" style="edgeStyle=orthogonalEdgeStyle;rounded=0;orthogonalLoop=1;jettySize=auto;html=1;" edge="1" parent="WIyWlLk6GJQsqaUBKTNV-1" source="ah__51HWeYL9F3NEtW8U-81" target="ah__51HWeYL9F3NEtW8U-82">
          <mxGeometry relative="1" as="geometry" />
        </mxCell>
        <mxCell id="ah__51HWeYL9F3NEtW8U-87" style="edgeStyle=orthogonalEdgeStyle;rounded=0;orthogonalLoop=1;jettySize=auto;html=1;exitX=0.5;exitY=1;exitDx=0;exitDy=0;" edge="1" parent="WIyWlLk6GJQsqaUBKTNV-1" source="ah__51HWeYL9F3NEtW8U-81">
          <mxGeometry relative="1" as="geometry">
            <mxPoint x="280" y="1200" as="targetPoint" />
          </mxGeometry>
        </mxCell>
        <mxCell id="ah__51HWeYL9F3NEtW8U-98" style="edgeStyle=orthogonalEdgeStyle;rounded=0;orthogonalLoop=1;jettySize=auto;html=1;exitX=0.5;exitY=1;exitDx=0;exitDy=0;entryX=0.5;entryY=0;entryDx=0;entryDy=0;" edge="1" parent="WIyWlLk6GJQsqaUBKTNV-1" source="ah__51HWeYL9F3NEtW8U-81" target="ah__51HWeYL9F3NEtW8U-99">
          <mxGeometry relative="1" as="geometry">
            <mxPoint x="420" y="1210" as="targetPoint" />
          </mxGeometry>
        </mxCell>
        <mxCell id="ah__51HWeYL9F3NEtW8U-103" style="edgeStyle=orthogonalEdgeStyle;rounded=0;orthogonalLoop=1;jettySize=auto;html=1;exitX=0.5;exitY=1;exitDx=0;exitDy=0;entryX=0.5;entryY=0;entryDx=0;entryDy=0;" edge="1" parent="WIyWlLk6GJQsqaUBKTNV-1" source="ah__51HWeYL9F3NEtW8U-81" target="ah__51HWeYL9F3NEtW8U-104">
          <mxGeometry relative="1" as="geometry">
            <mxPoint x="560" y="1200" as="targetPoint" />
          </mxGeometry>
        </mxCell>
        <mxCell id="ah__51HWeYL9F3NEtW8U-81" value="初期表示" style="rounded=1;whiteSpace=wrap;html=1;" vertex="1" parent="WIyWlLk6GJQsqaUBKTNV-1">
          <mxGeometry x="80" y="1120" width="120" height="40" as="geometry" />
        </mxCell>
        <mxCell id="ah__51HWeYL9F3NEtW8U-85" value="" style="edgeStyle=orthogonalEdgeStyle;rounded=0;orthogonalLoop=1;jettySize=auto;html=1;" edge="1" parent="WIyWlLk6GJQsqaUBKTNV-1" source="ah__51HWeYL9F3NEtW8U-82" target="ah__51HWeYL9F3NEtW8U-84">
          <mxGeometry relative="1" as="geometry" />
        </mxCell>
        <mxCell id="ah__51HWeYL9F3NEtW8U-82" value="行動" style="rounded=1;whiteSpace=wrap;html=1;" vertex="1" parent="WIyWlLk6GJQsqaUBKTNV-1">
          <mxGeometry x="80" y="1200" width="120" height="40" as="geometry" />
        </mxCell>
        <mxCell id="ah__51HWeYL9F3NEtW8U-86" value="" style="edgeStyle=orthogonalEdgeStyle;rounded=0;orthogonalLoop=1;jettySize=auto;html=1;" edge="1" parent="WIyWlLk6GJQsqaUBKTNV-1" source="ah__51HWeYL9F3NEtW8U-84" target="ah__51HWeYL9F3NEtW8U-82">
          <mxGeometry relative="1" as="geometry" />
        </mxCell>
        <mxCell id="ah__51HWeYL9F3NEtW8U-93" value="" style="edgeStyle=orthogonalEdgeStyle;rounded=0;orthogonalLoop=1;jettySize=auto;html=1;" edge="1" parent="WIyWlLk6GJQsqaUBKTNV-1" source="ah__51HWeYL9F3NEtW8U-84" target="ah__51HWeYL9F3NEtW8U-92">
          <mxGeometry relative="1" as="geometry" />
        </mxCell>
        <mxCell id="ah__51HWeYL9F3NEtW8U-84" value="行動選択" style="rounded=1;whiteSpace=wrap;html=1;fillColor=#fff2cc;strokeColor=#d6b656;" vertex="1" parent="WIyWlLk6GJQsqaUBKTNV-1">
          <mxGeometry x="80" y="1280" width="120" height="40" as="geometry" />
        </mxCell>
        <mxCell id="ah__51HWeYL9F3NEtW8U-90" value="" style="edgeStyle=orthogonalEdgeStyle;rounded=0;orthogonalLoop=1;jettySize=auto;html=1;" edge="1" parent="WIyWlLk6GJQsqaUBKTNV-1" source="ah__51HWeYL9F3NEtW8U-88" target="ah__51HWeYL9F3NEtW8U-89">
          <mxGeometry relative="1" as="geometry" />
        </mxCell>
        <mxCell id="ah__51HWeYL9F3NEtW8U-88" value="道具" style="rounded=1;whiteSpace=wrap;html=1;" vertex="1" parent="WIyWlLk6GJQsqaUBKTNV-1">
          <mxGeometry x="220" y="1200" width="120" height="40" as="geometry" />
        </mxCell>
        <mxCell id="ah__51HWeYL9F3NEtW8U-91" style="edgeStyle=orthogonalEdgeStyle;rounded=0;orthogonalLoop=1;jettySize=auto;html=1;" edge="1" parent="WIyWlLk6GJQsqaUBKTNV-1" source="ah__51HWeYL9F3NEtW8U-89" target="ah__51HWeYL9F3NEtW8U-88">
          <mxGeometry relative="1" as="geometry" />
        </mxCell>
        <mxCell id="ah__51HWeYL9F3NEtW8U-96" value="" style="edgeStyle=orthogonalEdgeStyle;rounded=0;orthogonalLoop=1;jettySize=auto;html=1;" edge="1" parent="WIyWlLk6GJQsqaUBKTNV-1" source="ah__51HWeYL9F3NEtW8U-89" target="ah__51HWeYL9F3NEtW8U-95">
          <mxGeometry relative="1" as="geometry" />
        </mxCell>
        <mxCell id="ah__51HWeYL9F3NEtW8U-89" value="道具選択" style="rounded=1;whiteSpace=wrap;html=1;fillColor=#fff2cc;strokeColor=#d6b656;" vertex="1" parent="WIyWlLk6GJQsqaUBKTNV-1">
          <mxGeometry x="220" y="1280" width="120" height="40" as="geometry" />
        </mxCell>
        <mxCell id="ah__51HWeYL9F3NEtW8U-94" style="edgeStyle=orthogonalEdgeStyle;rounded=0;orthogonalLoop=1;jettySize=auto;html=1;" edge="1" parent="WIyWlLk6GJQsqaUBKTNV-1" source="ah__51HWeYL9F3NEtW8U-92" target="ah__51HWeYL9F3NEtW8U-84">
          <mxGeometry relative="1" as="geometry" />
        </mxCell>
        <mxCell id="ah__51HWeYL9F3NEtW8U-107" style="edgeStyle=orthogonalEdgeStyle;rounded=0;orthogonalLoop=1;jettySize=auto;html=1;exitX=0.5;exitY=1;exitDx=0;exitDy=0;entryX=0.5;entryY=0;entryDx=0;entryDy=0;" edge="1" parent="WIyWlLk6GJQsqaUBKTNV-1" source="ah__51HWeYL9F3NEtW8U-92" target="ah__51HWeYL9F3NEtW8U-106">
          <mxGeometry relative="1" as="geometry" />
        </mxCell>
        <mxCell id="ah__51HWeYL9F3NEtW8U-92" value="対象キャラ選択" style="rounded=1;whiteSpace=wrap;html=1;fillColor=#fff2cc;strokeColor=#d6b656;" vertex="1" parent="WIyWlLk6GJQsqaUBKTNV-1">
          <mxGeometry x="80" y="1360" width="120" height="40" as="geometry" />
        </mxCell>
        <mxCell id="ah__51HWeYL9F3NEtW8U-97" style="edgeStyle=orthogonalEdgeStyle;rounded=0;orthogonalLoop=1;jettySize=auto;html=1;" edge="1" parent="WIyWlLk6GJQsqaUBKTNV-1" source="ah__51HWeYL9F3NEtW8U-95" target="ah__51HWeYL9F3NEtW8U-89">
          <mxGeometry relative="1" as="geometry" />
        </mxCell>
        <mxCell id="ah__51HWeYL9F3NEtW8U-108" style="edgeStyle=orthogonalEdgeStyle;rounded=0;orthogonalLoop=1;jettySize=auto;html=1;exitX=0.5;exitY=1;exitDx=0;exitDy=0;" edge="1" parent="WIyWlLk6GJQsqaUBKTNV-1" source="ah__51HWeYL9F3NEtW8U-95">
          <mxGeometry relative="1" as="geometry">
            <mxPoint x="140" y="1440" as="targetPoint" />
          </mxGeometry>
        </mxCell>
        <mxCell id="ah__51HWeYL9F3NEtW8U-95" value="対象キャラ選択" style="rounded=1;whiteSpace=wrap;html=1;fillColor=#fff2cc;strokeColor=#d6b656;" vertex="1" parent="WIyWlLk6GJQsqaUBKTNV-1">
          <mxGeometry x="220" y="1360" width="120" height="40" as="geometry" />
        </mxCell>
        <mxCell id="ah__51HWeYL9F3NEtW8U-101" value="" style="edgeStyle=orthogonalEdgeStyle;rounded=0;orthogonalLoop=1;jettySize=auto;html=1;" edge="1" parent="WIyWlLk6GJQsqaUBKTNV-1" source="ah__51HWeYL9F3NEtW8U-99" target="ah__51HWeYL9F3NEtW8U-100">
          <mxGeometry relative="1" as="geometry" />
        </mxCell>
        <mxCell id="ah__51HWeYL9F3NEtW8U-99" value="観察" style="rounded=1;whiteSpace=wrap;html=1;" vertex="1" parent="WIyWlLk6GJQsqaUBKTNV-1">
          <mxGeometry x="360" y="1200" width="120" height="40" as="geometry" />
        </mxCell>
        <mxCell id="ah__51HWeYL9F3NEtW8U-102" style="edgeStyle=orthogonalEdgeStyle;rounded=0;orthogonalLoop=1;jettySize=auto;html=1;" edge="1" parent="WIyWlLk6GJQsqaUBKTNV-1" source="ah__51HWeYL9F3NEtW8U-100" target="ah__51HWeYL9F3NEtW8U-99">
          <mxGeometry relative="1" as="geometry" />
        </mxCell>
        <mxCell id="ah__51HWeYL9F3NEtW8U-109" style="edgeStyle=orthogonalEdgeStyle;rounded=0;orthogonalLoop=1;jettySize=auto;html=1;exitX=0.5;exitY=1;exitDx=0;exitDy=0;entryX=0.5;entryY=0;entryDx=0;entryDy=0;" edge="1" parent="WIyWlLk6GJQsqaUBKTNV-1" source="ah__51HWeYL9F3NEtW8U-100" target="ah__51HWeYL9F3NEtW8U-106">
          <mxGeometry relative="1" as="geometry">
            <Array as="points">
              <mxPoint x="420" y="1420" />
              <mxPoint x="140" y="1420" />
            </Array>
          </mxGeometry>
        </mxCell>
        <mxCell id="ah__51HWeYL9F3NEtW8U-100" value="対象キャラ選択" style="rounded=1;whiteSpace=wrap;html=1;fillColor=#fff2cc;strokeColor=#d6b656;" vertex="1" parent="WIyWlLk6GJQsqaUBKTNV-1">
          <mxGeometry x="360" y="1280" width="120" height="40" as="geometry" />
        </mxCell>
        <mxCell id="ah__51HWeYL9F3NEtW8U-114" style="edgeStyle=orthogonalEdgeStyle;rounded=0;orthogonalLoop=1;jettySize=auto;html=1;exitX=1;exitY=0.5;exitDx=0;exitDy=0;entryX=0.5;entryY=0;entryDx=0;entryDy=0;" edge="1" parent="WIyWlLk6GJQsqaUBKTNV-1" source="ah__51HWeYL9F3NEtW8U-104" target="ah__51HWeYL9F3NEtW8U-110">
          <mxGeometry relative="1" as="geometry">
            <Array as="points">
              <mxPoint x="800" y="1220" />
              <mxPoint x="800" y="1500" />
              <mxPoint x="140" y="1500" />
            </Array>
          </mxGeometry>
        </mxCell>
        <mxCell id="ah__51HWeYL9F3NEtW8U-120" value="" style="edgeStyle=orthogonalEdgeStyle;rounded=0;orthogonalLoop=1;jettySize=auto;html=1;" edge="1" parent="WIyWlLk6GJQsqaUBKTNV-1" source="ah__51HWeYL9F3NEtW8U-104">
          <mxGeometry relative="1" as="geometry">
            <mxPoint x="560" y="1280" as="targetPoint" />
          </mxGeometry>
        </mxCell>
        <mxCell id="ah__51HWeYL9F3NEtW8U-126" style="edgeStyle=orthogonalEdgeStyle;rounded=0;orthogonalLoop=1;jettySize=auto;html=1;exitX=0.5;exitY=1;exitDx=0;exitDy=0;entryX=0.5;entryY=0;entryDx=0;entryDy=0;" edge="1" parent="WIyWlLk6GJQsqaUBKTNV-1" source="ah__51HWeYL9F3NEtW8U-104" target="ah__51HWeYL9F3NEtW8U-125">
          <mxGeometry relative="1" as="geometry" />
        </mxCell>
        <mxCell id="ah__51HWeYL9F3NEtW8U-104" value="にげる" style="rounded=1;whiteSpace=wrap;html=1;" vertex="1" parent="WIyWlLk6GJQsqaUBKTNV-1">
          <mxGeometry x="500" y="1200" width="120" height="40" as="geometry" />
        </mxCell>
        <mxCell id="ah__51HWeYL9F3NEtW8U-111" value="" style="edgeStyle=orthogonalEdgeStyle;rounded=0;orthogonalLoop=1;jettySize=auto;html=1;" edge="1" parent="WIyWlLk6GJQsqaUBKTNV-1" source="ah__51HWeYL9F3NEtW8U-106" target="ah__51HWeYL9F3NEtW8U-110">
          <mxGeometry relative="1" as="geometry" />
        </mxCell>
        <mxCell id="ah__51HWeYL9F3NEtW8U-106" value="味方キャラ行動" style="shape=process;whiteSpace=wrap;html=1;backgroundOutline=1;fillColor=#d5e8d4;strokeColor=#82b366;" vertex="1" parent="WIyWlLk6GJQsqaUBKTNV-1">
          <mxGeometry x="80" y="1440" width="120" height="40" as="geometry" />
        </mxCell>
        <mxCell id="ah__51HWeYL9F3NEtW8U-112" style="edgeStyle=orthogonalEdgeStyle;rounded=0;orthogonalLoop=1;jettySize=auto;html=1;exitX=0.5;exitY=1;exitDx=0;exitDy=0;entryX=0;entryY=0.5;entryDx=0;entryDy=0;" edge="1" parent="WIyWlLk6GJQsqaUBKTNV-1" source="ah__51HWeYL9F3NEtW8U-110" target="ah__51HWeYL9F3NEtW8U-81">
          <mxGeometry relative="1" as="geometry">
            <Array as="points">
              <mxPoint x="140" y="1580" />
              <mxPoint x="40" y="1580" />
              <mxPoint x="40" y="1140" />
            </Array>
          </mxGeometry>
        </mxCell>
        <mxCell id="ah__51HWeYL9F3NEtW8U-110" value="敵キャラ行動" style="shape=process;whiteSpace=wrap;html=1;backgroundOutline=1;fillColor=#d5e8d4;strokeColor=#82b366;" vertex="1" parent="WIyWlLk6GJQsqaUBKTNV-1">
          <mxGeometry x="80" y="1520" width="120" height="40" as="geometry" />
        </mxCell>
        <mxCell id="ah__51HWeYL9F3NEtW8U-115" value="失敗" style="text;html=1;align=center;verticalAlign=middle;whiteSpace=wrap;rounded=0;" vertex="1" parent="WIyWlLk6GJQsqaUBKTNV-1">
          <mxGeometry x="620" y="1190" width="60" height="30" as="geometry" />
        </mxCell>
        <mxCell id="ah__51HWeYL9F3NEtW8U-118" value="成功" style="text;html=1;align=center;verticalAlign=middle;whiteSpace=wrap;rounded=0;" vertex="1" parent="WIyWlLk6GJQsqaUBKTNV-1">
          <mxGeometry x="500" y="1240" width="60" height="30" as="geometry" />
        </mxCell>
        <mxCell id="ah__51HWeYL9F3NEtW8U-121" value="準備画面遷移" style="shape=process;whiteSpace=wrap;html=1;backgroundOutline=1;fillColor=#dae8fc;strokeColor=#6c8ebf;" vertex="1" parent="WIyWlLk6GJQsqaUBKTNV-1">
          <mxGeometry x="500" y="1280" width="120" height="40" as="geometry" />
        </mxCell>
        <mxCell id="ah__51HWeYL9F3NEtW8U-125" value="バトル画面遷移" style="shape=process;whiteSpace=wrap;html=1;backgroundOutline=1;fillColor=#dae8fc;strokeColor=#6c8ebf;" vertex="1" parent="WIyWlLk6GJQsqaUBKTNV-1">
          <mxGeometry x="640" y="1280" width="120" height="40" as="geometry" />
        </mxCell>
        <mxCell id="ah__51HWeYL9F3NEtW8U-127" value="エンディング画面" style="text;html=1;align=center;verticalAlign=middle;whiteSpace=wrap;rounded=0;fontSize=22;" vertex="1" parent="WIyWlLk6GJQsqaUBKTNV-1">
          <mxGeometry x="40" y="1640" width="200" height="40" as="geometry" />
        </mxCell>
        <mxCell id="ah__51HWeYL9F3NEtW8U-130" value="" style="edgeStyle=orthogonalEdgeStyle;rounded=0;orthogonalLoop=1;jettySize=auto;html=1;" edge="1" parent="WIyWlLk6GJQsqaUBKTNV-1" source="ah__51HWeYL9F3NEtW8U-128">
          <mxGeometry relative="1" as="geometry">
            <mxPoint x="140" y="1800" as="targetPoint" />
          </mxGeometry>
        </mxCell>
        <mxCell id="ah__51HWeYL9F3NEtW8U-128" value="初期表示" style="rounded=1;whiteSpace=wrap;html=1;" vertex="1" parent="WIyWlLk6GJQsqaUBKTNV-1">
          <mxGeometry x="80" y="1720" width="120" height="40" as="geometry" />
        </mxCell>
        <mxCell id="ah__51HWeYL9F3NEtW8U-132" value="&lt;span style=&quot;color: rgba(0, 0, 0, 0); font-family: monospace; font-size: 0px; text-align: start;&quot;&gt;%3CmxGraphModel%3E%3Croot%3E%3CmxCell%20id%3D%220%22%2F%3E%3CmxCell%20id%3D%221%22%20parent%3D%220%22%2F%3E%3CmxCell%20id%3D%222%22%20value%3D%22%E3%83%90%E3%83%88%E3%83%AB%E7%94%BB%E9%9D%A2%E9%81%B7%E7%A7%BB%22%20style%3D%22shape%3Dprocess%3BwhiteSpace%3Dwrap%3Bhtml%3D1%3BbackgroundOutline%3D1%3BfillColor%3D%23dae8fc%3BstrokeColor%3D%236c8ebf%3B%22%20vertex%3D%221%22%20parent%3D%221%22%3E%3CmxGeometry%20x%3D%22370%22%20y%3D%221090%22%20width%3D%22120%22%20height%3D%2240%22%20as%3D%22geometry%22%2F%3E%3C%2FmxCell%3E%3C%2Froot%3E%3C%2FmxGraphModel%3E&lt;/span&gt;" style="text;html=1;align=center;verticalAlign=middle;resizable=0;points=[];autosize=1;strokeColor=none;fillColor=none;" vertex="1" parent="WIyWlLk6GJQsqaUBKTNV-1">
          <mxGeometry x="200" y="1798" width="20" height="30" as="geometry" />
        </mxCell>
        <mxCell id="ah__51HWeYL9F3NEtW8U-133" value="タイトル画面遷移" style="shape=process;whiteSpace=wrap;html=1;backgroundOutline=1;fillColor=#dae8fc;strokeColor=#6c8ebf;" vertex="1" parent="WIyWlLk6GJQsqaUBKTNV-1">
          <mxGeometry x="80" y="1880" width="120" height="40" as="geometry" />
        </mxCell>
        <mxCell id="ah__51HWeYL9F3NEtW8U-136" style="edgeStyle=orthogonalEdgeStyle;rounded=0;orthogonalLoop=1;jettySize=auto;html=1;exitX=0.5;exitY=1;exitDx=0;exitDy=0;entryX=0.5;entryY=0;entryDx=0;entryDy=0;" edge="1" parent="WIyWlLk6GJQsqaUBKTNV-1" source="ah__51HWeYL9F3NEtW8U-135" target="ah__51HWeYL9F3NEtW8U-133">
          <mxGeometry relative="1" as="geometry" />
        </mxCell>
        <mxCell id="ah__51HWeYL9F3NEtW8U-135" value="エンディングストーリー表示" style="shape=process;whiteSpace=wrap;html=1;backgroundOutline=1;fillColor=#d5e8d4;strokeColor=#82b366;" vertex="1" parent="WIyWlLk6GJQsqaUBKTNV-1">
          <mxGeometry x="80" y="1800" width="120" height="40" as="geometry" />
        </mxCell>
      </root>
    </mxGraphModel>
  </diagram>
</mxfile>
